{"asset":{"copyright":"","generator":"Source 2 Viewer 19.1.0.0 - https://valveresourceformat.github.io","version":"2.0"},"accessors":[{"bufferView":0,"componentType":5126,"count":12855,"max":[3495.000244140625,931.9999389648438,-16.00002670288086],"min":[-2989.499755859375,-2477.5,-771.9999389648438],"type":"VEC3"},{"bufferView":1,"componentType":5126,"count":12855,"max":[0.9671828150749207,0.9943699240684509,1],"min":[-0.9939188957214355,-0.9484866261482239,6.084691449359525E-06],"type":"VEC3"},{"bufferView":2,"componentType":5126,"count":12855,"max":[69.9000015258789,49.54999923706055],"min":[-59.78999328613281,-18.639997482299805],"type":"VEC2"},{"bufferView":3,"componentType":5125,"count":12855,"type":"SCALAR"},{"bufferView":4,"componentType":5126,"count":36,"max":[1130,-432,-91.99998474121094],"min":[-523,-1447,-580],"type":"VEC3"},{"bufferView":5,"componentType":5126,"count":36,"max":[1,0,0],"min":[-1,-1,0],"type":"VEC3"},{"bufferView":6,"componentType":5126,"count":36,"max":[-1.8399996757507324,28.939998626708984],"min":[-11.59999942779541,-5.019999980926514],"type":"VEC2"},{"bufferView":7,"componentType":5125,"count":36,"type":"SCALAR"}],"bufferViews":[{"buffer":0,"byteLength":154260,"target":34962},{"buffer":0,"byteLength":154260,"byteOffset":154260,"target":34962},{"buffer":0,"byteLength":102840,"byteOffset":308520,"target":34962},{"buffer":0,"byteLength":51420,"byteOffset":411360,"target":34963},{"buffer":0,"byteLength":432,"byteOffset":462780,"target":34962},{"buffer":0,"byteLength":432,"byteOffset":463212,"target":34962},{"buffer":0,"byteLength":288,"byteOffset":463644,"target":34962},{"buffer":0,"byteLength":144,"byteOffset":463932,"target":34963}],"buffers":[{"byteLength":464076,"uri":"de_nuke.bin"}],"materials":[{"name":"navmesh_hull_0_material","doubleSided":true,"pbrMetallicRoughness":{"baseColorFactor":[0.25,0.13,1,1],"metallicFactor":0}},{"name":"navmesh_ladders_material","doubleSided":true,"pbrMetallicRoughness":{"baseColorFactor":[0.06,1,0.13,1],"metallicFactor":0}}],"meshes":[{"name":"navmesh_hull_0","primitives":[{"attributes":{"POSITION":0,"NORMAL":1,"TEXCOORD_0":2},"indices":3,"material":0}]},{"name":"navmesh_ladders","primitives":[{"attributes":{"POSITION":4,"NORMAL":5,"TEXCOORD_0":6},"indices":7,"material":1}]}],"nodes":[{"extras":{"HullIndex":0},"name":"navmesh_hull_0","matrix":[3.027916E-09,0,0.025399996,0,0.025399996,3.027916E-09,0,0,0,0.025399996,3.027916E-09,0,0,0,0,1],"mesh":0},{"name":"navmesh_ladders","matrix":[3.027916E-09,0,0.025399996,0,0.025399996,3.027916E-09,0,0,0,0.025399996,3.027916E-09,0,0,0,0,1],"mesh":1}],"samplers":[{"magFilter":9729,"minFilter":9987}],"scenes":[{"name":"de_nuke.nav","nodes":[0,1]}]}